<svg width="26" height="26" viewBox="0 0 26 26" fill="none" xmlns="http://www.w3.org/2000/svg">
<circle cx="13" cy="13" r="13" fill="#4F66D0"/>
<mask id="path-2-inside-1" fill="white">
<path fill-rule="evenodd" clip-rule="evenodd" d="M19.707 10L10.5 19.207L5.29303 14L6.00003 13.293L10.5 17.793L19 9.293L19.707 10Z"/>
</mask>
<path fill-rule="evenodd" clip-rule="evenodd" d="M19.707 10L10.5 19.207L5.29303 14L6.00003 13.293L10.5 17.793L19 9.293L19.707 10Z" fill="white"/>
<path d="M10.5 19.207L8.37871 21.3283L10.5 23.4496L12.6213 21.3283L10.5 19.207ZM5.29303 14L3.17171 11.8787L1.05039 14L3.17171 16.1213L5.29303 14ZM6.00003 13.293L8.12135 11.1717L6.00003 9.05036L3.87871 11.1717L6.00003 13.293ZM10.5 17.793L8.37871 19.9143L10.5 22.0356L12.6213 19.9143L10.5 17.793ZM19 9.293L21.1214 7.17168L19 5.05036L16.8787 7.17168L19 9.293ZM17.5857 7.87868L8.37871 17.0857L12.6213 21.3283L21.8284 12.1213L17.5857 7.87868ZM12.6213 17.0857L7.41435 11.8787L3.17171 16.1213L8.37871 21.3283L12.6213 17.0857ZM7.41435 16.1213L8.12135 15.4143L3.87871 11.1717L3.17171 11.8787L7.41435 16.1213ZM3.87871 15.4143L8.37871 19.9143L12.6213 15.6717L8.12135 11.1717L3.87871 15.4143ZM12.6213 19.9143L21.1214 11.4143L16.8787 7.17168L8.37871 15.6717L12.6213 19.9143ZM16.8787 11.4143L17.5857 12.1213L21.8284 7.87868L21.1214 7.17168L16.8787 11.4143Z" fill="white" mask="url(#path-2-inside-1)"/>
</svg>
