<svg width="272" height="235" viewBox="0 0 272 235" fill="none" xmlns="http://www.w3.org/2000/svg">
<ellipse cx="136" cy="117.5" rx="136" ry="117.5" fill="white"/>
<path d="M177 156C153.806 156 135 137.195 135 114C135 90.8055 153.806 72 177 72C200.195 72 219 90.8055 219 114C219 137.195 200.195 156 177 156ZM166.5 93.0315V134.968L198 114L166.5 93.0315Z" fill="#312D2D"/>
<path d="M198.623 126.975L189.685 128.435L185.065 116.734C184.705 115.821 183.992 115.091 183.083 114.704C182.174 114.317 181.143 114.304 180.218 114.67C179.293 115.035 178.549 115.748 178.15 116.651C177.751 117.555 177.729 118.576 178.089 119.488L182.165 129.813L180.143 132.043C179.397 132.872 178.897 133.888 178.7 134.978C178.504 136.068 178.618 137.187 179.03 138.211L181.857 145.369C182.327 146.56 183.176 147.565 184.277 148.232L188.923 151.012L204.27 144.953L206.475 137.877C206.895 136.587 206.859 135.198 206.372 133.94L205.068 130.636C204.577 129.39 203.672 128.349 202.502 127.685C201.331 127.02 199.964 126.769 198.623 126.975Z" fill="url(#paint0_linear)"/>
<path d="M185.254 141.71C185.623 141.564 185.919 141.277 186.077 140.912C186.234 140.548 186.241 140.135 186.095 139.765L182.239 129.999L180.229 132.243L179.951 132.353L183.256 140.724C183.313 140.927 183.413 141.115 183.547 141.276C183.682 141.438 183.848 141.569 184.037 141.662C184.225 141.755 184.431 141.807 184.64 141.816C184.85 141.824 185.059 141.788 185.254 141.71Z" fill="#FF741B"/>
<path d="M124.643 172.312C124.643 171.589 124.053 171 123.33 171H95.23C94.5109 171 93.9178 171.589 93.9178 172.312V192.86H124.643V172.312Z" fill="#FFBA55"/>
<path d="M103.4 172.219H104.789V191.495H103.4V172.219Z" fill="#2F2F2F"/>
<path d="M113.499 172.219H114.888V191.495H113.499V172.219Z" fill="#2F2F2F"/>
<path d="M93.9178 192.86V174.153H86.7922C85.5084 174.153 83.6356 175.128 83.3472 177.362C82.9206 180.644 81.9456 185.548 81.9456 185.548L75.5025 187.961C75.5025 187.961 73 188.769 73 191.849V198.004C73 198.836 74.0238 199.974 74.7956 199.974H123.33C124.053 199.974 124.642 199.385 124.642 198.662V192.86H93.9178Z" fill="#78A3AD"/>
<path d="M92.3172 184.081C92.3172 184.804 91.7281 185.393 91.005 185.393H85.87C85.1469 185.393 84.6431 184.808 84.7447 184.098L85.6506 177.841C85.7522 177.126 86.4306 176.541 87.1497 176.541H91.005C91.7241 176.541 92.3172 177.134 92.3172 177.853V184.081Z" fill="white"/>
<path d="M88.0719 199.978C88.0719 202.501 86.0244 204.544 83.5016 204.544C80.9787 204.544 78.9312 202.501 78.9312 199.978C78.9312 197.451 80.9787 195.412 83.5016 195.412C86.0244 195.412 88.0719 197.451 88.0719 199.978Z" fill="#2F2F2F"/>
<path d="M115.599 199.978C115.599 202.501 113.552 204.544 111.029 204.544C108.506 204.544 106.459 202.501 106.459 199.978C106.459 197.451 108.506 195.412 111.029 195.412C113.552 195.412 115.599 197.451 115.599 199.978Z" fill="#2F2F2F"/>
<path d="M103.779 130.611C103.779 131.186 103.551 131.737 103.145 132.143C102.738 132.55 102.187 132.778 101.613 132.778C101.038 132.778 100.487 132.55 100.08 132.143C99.6742 131.737 99.4459 131.186 99.4459 130.611V95.9445C99.4459 95.3699 99.6742 94.8188 100.08 94.4124C100.487 94.0061 101.038 93.7778 101.613 93.7778C102.187 93.7778 102.738 94.0061 103.145 94.4124C103.551 94.8188 103.779 95.3699 103.779 95.9445V130.611Z" fill="#CCD6DD"/>
<path d="M109.387 134.222C109.44 133.985 109.476 133.745 109.476 133.5C109.476 130.708 105.918 128.444 101.532 128.444C97.1449 128.444 93.5872 130.708 93.5872 133.5C93.5872 133.745 93.6233 133.985 93.6768 134.222H109.387Z" fill="#CCD6DD"/>
<path d="M110.921 101C111.403 102.625 109.626 103.889 108.032 103.889H95.0317C93.437 103.889 91.7224 102.444 92.1428 101L95.0317 90.8889C95.3928 89.3231 96.3259 88 97.9206 88H105.143C106.739 88 107.671 89.625 108.032 90.8889L110.921 101Z" fill="#FCAB40"/>
<path d="M100.899 130.035C100.899 131.79 99.43 133.211 97.6187 133.211H68.0957C66.2843 133.211 64.8153 131.79 64.8153 130.035V115.735C64.8153 113.98 66.2843 112.557 68.0957 112.557H97.6187C99.43 112.557 100.899 113.98 100.899 115.735V130.035Z" fill="#315068"/>
<path d="M98.7237 133.211C98.7237 134.054 98.3889 134.862 97.7929 135.458C97.197 136.054 96.3887 136.389 95.5459 136.389H68.5348C67.692 136.389 66.8837 136.054 66.2877 135.458C65.6918 134.862 65.357 134.054 65.357 133.211V131.622C65.357 130.779 65.6918 129.971 66.2877 129.375C66.8837 128.779 67.692 128.444 68.5348 128.444H95.5459C96.3887 128.444 97.197 128.779 97.7929 129.375C98.3889 129.971 98.7237 130.779 98.7237 131.622V133.211Z" fill="#4173C6"/>
<path d="M82.8579 124.472C92.8169 124.472 100.89 120.511 100.89 115.625C100.89 110.739 92.8169 106.778 82.8579 106.778C72.8988 106.778 64.8254 110.739 64.8254 115.625C64.8254 120.511 72.8988 124.472 82.8579 124.472Z" fill="#4173C6" fill-opacity="0.91"/>
<path d="M68.5348 122.09C68.5347 122.716 68.4113 123.336 68.1716 123.915C67.9319 124.493 67.5807 125.019 67.1379 125.461C66.6952 125.904 66.1696 126.255 65.5911 126.494C65.0127 126.734 64.3927 126.857 63.7667 126.857C63.1406 126.857 62.5207 126.734 61.9423 126.494C61.364 126.254 60.8385 125.903 60.3958 125.46C59.9532 125.017 59.6021 124.492 59.3626 123.913C59.1231 123.335 58.9999 122.715 59 122.089C59 120.825 59.5023 119.612 60.3963 118.718C61.2904 117.824 62.503 117.322 63.7674 117.322C65.0318 117.322 66.2444 117.824 67.1384 118.718C68.0325 119.612 68.5348 120.825 68.5348 122.089V122.09Z" fill="#0096E6"/>
<path d="M68.5348 136.389C68.5348 137.232 68.2 138.04 67.604 138.636C67.0081 139.232 66.1998 139.567 65.357 139.567C64.5142 139.567 63.7059 139.232 63.1099 138.636C62.514 138.04 62.1792 137.232 62.1792 136.389V122.09C62.1792 121.248 62.514 120.439 63.1099 119.843C63.7059 119.247 64.5142 118.913 65.357 118.913C66.1998 118.913 67.0081 119.247 67.604 119.843C68.2 120.439 68.5348 121.248 68.5348 122.09V136.389ZM97.1348 122.09C97.1348 123.355 97.637 124.567 98.5309 125.461C99.4248 126.355 100.637 126.857 101.901 126.857C103.166 126.857 104.378 126.355 105.272 125.461C106.166 124.567 106.668 123.355 106.668 122.09C106.668 120.826 106.166 119.614 105.272 118.72C104.378 117.826 103.166 117.324 101.901 117.324C100.637 117.324 99.4248 117.826 98.5309 118.72C97.637 119.614 97.1348 120.826 97.1348 122.09Z" fill="#0096E6"/>
<path d="M97.1348 136.389C97.1257 136.812 97.2013 137.232 97.3569 137.626C97.5125 138.019 97.7451 138.377 98.041 138.68C98.3369 138.982 98.6902 139.222 99.0801 139.386C99.47 139.55 99.8888 139.634 100.312 139.634C100.735 139.634 101.154 139.55 101.544 139.386C101.933 139.222 102.287 138.982 102.583 138.68C102.879 138.377 103.111 138.019 103.267 137.626C103.422 137.232 103.498 136.812 103.489 136.389V122.09C103.471 121.259 103.129 120.469 102.535 119.887C101.941 119.306 101.143 118.98 100.312 118.98C99.4807 118.98 98.6828 119.306 98.0889 119.887C97.495 120.469 97.1525 121.259 97.1348 122.09V136.389ZM82.8348 128.444C82.8348 129.287 82.5 130.095 81.904 130.691C81.3081 131.287 80.4998 131.622 79.657 131.622H71.7125C70.8697 131.622 70.0615 131.287 69.4655 130.691C68.8696 130.095 68.5348 129.287 68.5348 128.444C68.5348 127.602 68.8696 126.793 69.4655 126.197C70.0615 125.601 70.8697 125.267 71.7125 125.267H79.657C80.4998 125.267 81.3081 125.601 81.904 126.197C82.5 126.793 82.8348 127.602 82.8348 128.444ZM97.1348 128.444C97.1348 129.287 96.8 130.095 96.204 130.691C95.6081 131.287 94.7998 131.622 93.957 131.622H86.0125C85.1697 131.622 84.3615 131.287 83.7655 130.691C83.1696 130.095 82.8348 129.287 82.8348 128.444C82.8348 127.602 83.1696 126.793 83.7655 126.197C84.3615 125.601 85.1697 125.267 86.0125 125.267H93.957C94.7998 125.267 95.6081 125.601 96.204 126.197C96.8 126.793 97.1348 127.602 97.1348 128.444Z" fill="#0096E6"/>
<path d="M67.6681 128.444H98.0014V132.778H67.6681V128.444Z" fill="#0096E6"/>
<path d="M123.156 49.6392H118.809V65.2392C118.809 66.3962 118.305 67.8392 116.209 67.8392H105.809V52.2392H95.4091V67.8392H85.0091C82.9135 67.8392 82.4091 66.3962 82.4091 65.2392V49.6392H78.0619C76.5071 49.6392 76.8399 48.7968 77.9059 47.6944L98.7683 26.8112C99.2753 26.286 99.9409 26.026 100.609 26C101.277 26.026 101.943 26.2834 102.45 26.8112L123.31 47.6918C124.378 48.7968 124.711 49.6392 123.156 49.6392Z" fill="#55ACEE"/>
<defs>
<linearGradient id="paint0_linear" x1="183.706" y1="113.293" x2="197.294" y2="147.707" gradientUnits="userSpaceOnUse">
<stop stop-color="#FFF912"/>
<stop offset="1" stop-color="#FFAD09"/>
</linearGradient>
</defs>
</svg>
