<svg width="272" height="235" viewBox="0 0 272 235" fill="none" xmlns="http://www.w3.org/2000/svg">
<ellipse cx="136" cy="117.5" rx="136" ry="117.5" fill="white"/>
<g clip-path="url(#clip0)">
<path d="M180.406 71.2908C180.403 63.2109 177.436 55.339 171.929 48.8016C166.421 42.2643 158.657 37.3967 149.747 34.8955C140.836 32.3942 131.236 32.3876 122.321 34.8765C113.406 37.3653 105.633 42.2222 100.113 48.7519C94.5942 55.2816 91.6121 63.1494 91.5938 71.2292C91.5756 79.3091 94.5222 87.1868 100.012 93.735C105.502 100.283 113.253 105.166 122.157 107.685C131.061 110.204 140.661 110.229 149.582 107.758C158.537 105.277 166.347 100.409 171.887 93.8556C177.426 87.3017 180.409 79.4005 180.406 71.2908ZM97.7188 71.2908C97.7188 64.7624 99.9639 58.3807 104.17 52.9526C108.377 47.5245 114.355 43.2938 121.35 40.7955C128.345 38.2972 136.042 37.6436 143.468 38.9172C150.894 40.1908 157.715 43.3345 163.069 47.9507C168.423 52.5669 172.069 58.4484 173.546 64.8513C175.023 71.2542 174.265 77.8909 171.367 83.9223C168.47 89.9537 163.563 95.1088 157.268 98.7358C150.973 102.363 143.571 104.299 136 104.299C125.847 104.299 116.11 100.821 108.931 94.6308C101.752 88.4407 97.7188 80.045 97.7188 71.2908ZM133.443 164.162H120.519C121.083 162.235 121.386 160.259 121.423 158.273C121.024 155.051 120.106 147.512 113.276 144.806C111.455 144.078 109.429 143.816 107.44 144.05C105.451 144.284 103.581 145.004 102.052 146.126C97.9484 149.07 98.1781 153.163 98.3006 155.368C98.3006 155.712 98.3006 158.009 98.3006 158.009C97.3972 159.95 93.5078 165.403 92.1756 167.251L91.5325 168.149V165.033C91.5325 164.333 91.2098 163.661 90.6355 163.166C90.0612 162.671 89.2822 162.392 88.47 162.392H73.2188C72.4065 162.392 71.6276 162.671 71.0532 163.166C70.4789 163.661 70.1562 164.333 70.1562 165.033V199.361C70.1562 200.061 70.4789 200.733 71.0532 201.228C71.6276 201.723 72.4065 202.002 73.2188 202.002H88.5312C89.1932 201.998 89.836 201.809 90.3633 201.464C90.8905 201.119 91.2739 200.636 91.4559 200.087C92.1598 200.12 92.8652 200.12 93.5691 200.087C94.7375 200.811 96.0359 201.364 97.4125 201.724C97.9451 201.857 98.4967 201.923 99.0509 201.922H127.379C128.451 201.927 129.517 201.78 130.533 201.487C132.579 200.923 134.365 199.813 135.633 198.319C136.902 196.824 137.588 195.021 137.592 193.169C137.616 192.795 137.616 192.42 137.592 192.047C138.641 191.043 139.406 189.844 139.826 188.542C140.245 187.241 140.309 185.873 140.012 184.547C141.362 183.033 142.095 181.176 142.094 179.266C142.096 178.631 142.019 177.998 141.865 177.378C143.043 175.918 143.669 174.179 143.656 172.4C143.656 167.674 139.262 164.162 133.443 164.162ZM133.443 175.873H132.432C133.466 175.978 134.413 176.423 135.073 177.117C135.734 177.81 136.058 178.697 135.977 179.592C135.896 180.487 135.416 181.32 134.638 181.916C133.86 182.513 132.845 182.826 131.804 182.791H130.089C131.118 182.861 132.076 183.268 132.769 183.927C133.461 184.587 133.834 185.449 133.813 186.339C133.791 187.228 133.376 188.077 132.653 188.711C131.929 189.345 130.952 189.716 129.921 189.749H127.563C128.592 189.82 129.55 190.228 130.241 190.889C130.933 191.55 131.305 192.413 131.281 193.303C131.258 194.193 130.841 195.041 130.115 195.674C129.389 196.307 128.411 196.677 127.379 196.707H99.0969C97.6728 196.364 96.6316 195.387 95.2688 194.912C94.9579 194.823 94.6312 194.783 94.3041 194.793C93.4015 194.841 92.4963 194.841 91.5938 194.793V174.737C91.5938 174.737 95.6209 172.625 95.7434 172.387C96.2641 171.384 104.472 160.623 104.472 158.511V156.306C104.472 154.127 103.798 151.671 106.003 150.127C106.651 149.643 107.451 149.336 108.301 149.244C109.151 149.153 110.014 149.281 110.78 149.612C114.256 150.932 115.037 155.962 115.374 158.854C115.558 160.385 113.016 168.901 112.541 169.416H133.443C135.709 169.416 137.531 170.446 137.531 172.374C137.531 172.836 137.425 173.293 137.219 173.719C137.014 174.145 136.712 174.532 136.332 174.857C135.952 175.183 135.501 175.44 135.005 175.614C134.509 175.788 133.978 175.876 133.443 175.873ZM41.0625 174.275H60.9688C61.781 174.275 62.5599 173.997 63.1343 173.502C63.7086 173.007 64.0312 172.335 64.0312 171.635C64.0312 170.934 63.7086 170.263 63.1343 169.767C62.5599 169.272 61.781 168.994 60.9688 168.994H41.0625C40.2503 168.994 39.4713 169.272 38.897 169.767C38.3227 170.263 38 170.934 38 171.635C38 172.335 38.3227 173.007 38.897 173.502C39.4713 173.997 40.2503 174.275 41.0625 174.275ZM41.0625 195.4H60.9688C61.781 195.4 62.5599 195.122 63.1343 194.627C63.7086 194.132 64.0312 193.46 64.0312 192.76C64.0312 192.059 63.7086 191.388 63.1343 190.892C62.5599 190.397 61.781 190.119 60.9688 190.119H41.0625C40.2503 190.119 39.4713 190.397 38.897 190.892C38.3227 191.388 38 192.059 38 192.76C38 193.46 38.3227 194.132 38.897 194.627C39.4713 195.122 40.2503 195.4 41.0625 195.4ZM60.9688 179.556H53.3125C52.5003 179.556 51.7213 179.835 51.147 180.33C50.5727 180.825 50.25 181.497 50.25 182.197C50.25 182.897 50.5727 183.569 51.147 184.064C51.7213 184.559 52.5003 184.838 53.3125 184.838H60.9688C61.781 184.838 62.5599 184.559 63.1343 184.064C63.7086 183.569 64.0312 182.897 64.0312 182.197C64.0312 181.497 63.7086 180.825 63.1343 180.33C62.5599 179.835 61.781 179.556 60.9688 179.556Z" fill="#2B4255"/>
<path d="M136 114.859C134.637 114.859 133.29 114.859 131.942 114.701L125.817 150.204C126.71 152.65 127.286 155.174 127.532 157.73C127.558 158.112 127.558 158.496 127.532 158.879H133.412C141.788 158.879 148.296 163.579 149.521 170.128L140.487 114.675C139.062 114.793 137.531 114.859 136 114.859ZM98.1475 141.992C100.892 139.991 104.314 138.81 107.902 138.625H108.698C111.16 138.61 113.595 139.061 115.833 139.945C117.699 140.681 119.395 141.701 120.841 142.956L125.878 113.909C117.452 112.435 109.602 109.126 103.078 104.297H102.312C75.3319 104.297 53.3125 123.639 53.3125 147.418V157.109H88.5312C89.608 157.109 90.6762 157.275 91.6856 157.598C91.8847 157.281 92.0684 156.991 92.2216 156.726V156.304C92.2216 156.053 92.2216 155.815 92.2216 155.565C92.0531 153.148 91.6856 146.639 98.1475 141.992Z" fill="#0096E6"/>
<path d="M180.406 133.278L177.436 138.718L170.453 139.642L175.522 144.104L174.358 150.204L180.406 147.339L186.455 150.204L185.291 144.104L190.359 139.642L183.377 138.718L180.406 133.278Z" fill="#FFD615"/>
<path d="M218.688 193.127V147.418C218.688 123.639 196.668 104.297 169.688 104.297H168.922C167.901 105.063 166.829 105.798 165.706 106.502C160.012 110.089 153.506 112.604 146.612 113.882L155.799 170.814C155.869 171.255 155.809 171.704 155.625 172.119C155.44 172.535 155.137 172.903 154.743 173.191L148.388 177.851C148.281 178.076 148.173 178.327 148.051 178.551C147.928 178.776 148.051 179.053 148.051 179.317C148.058 181.619 147.406 183.886 146.152 185.919V186.288C146.156 188.955 145.274 191.566 143.61 193.814C143.493 196.797 142.263 199.667 140.104 202H208.551C211.258 201.979 213.846 201.033 215.746 199.37C217.646 197.707 218.704 195.462 218.688 193.127ZM197.434 140.949L191.829 145.887L193.162 152.871C193.291 153.412 193.28 153.97 193.129 154.507C192.978 155.043 192.691 155.544 192.289 155.974C191.933 156.332 191.492 156.619 190.994 156.815C190.497 157.011 189.957 157.112 189.41 157.109C188.625 157.101 187.855 156.919 187.174 156.581L180.406 153.36L173.623 156.581C172.823 157.007 171.877 157.179 170.947 157.068C170.016 156.957 169.159 156.57 168.524 155.974C168.121 155.544 167.835 155.043 167.684 154.507C167.533 153.97 167.522 153.412 167.651 152.871L168.983 145.887L163.379 140.949C162.804 140.488 162.392 139.896 162.188 139.243C161.985 138.589 162 137.899 162.23 137.252C162.49 136.623 162.952 136.071 163.562 135.659C164.172 135.248 164.905 134.994 165.676 134.928L173.332 133.925L176.762 127.627C177.041 126.977 177.544 126.416 178.204 126.02C178.864 125.624 179.648 125.412 180.452 125.412C181.256 125.412 182.041 125.624 182.7 126.02C183.36 126.416 183.863 126.977 184.143 127.627L187.573 133.925L195.229 134.928C195.99 135.013 196.708 135.281 197.301 135.701C197.895 136.121 198.338 136.677 198.582 137.305C198.8 137.944 198.808 138.623 198.606 139.267C198.403 139.91 197.997 140.492 197.434 140.949Z" fill="#0096E6"/>
</g>
<defs>
<clipPath id="clip0">
<rect width="196" height="169" fill="white" transform="translate(38 33)"/>
</clipPath>
</defs>
</svg>
