<svg width="146" height="46" viewBox="0 0 146 46" fill="none" xmlns="http://www.w3.org/2000/svg">
<path d="M34.316 25.972C34.628 25.972 34.868 26.116 35.036 26.404C35.228 26.692 35.324 27.088 35.324 27.592C35.324 28.528 35.096 29.272 34.64 29.824C33.488 31.216 32.324 32.296 31.148 33.064C29.972 33.808 28.58 34.18 26.972 34.18C25.412 34.18 24.08 33.76 22.976 32.92C21.896 32.08 20.864 30.64 19.88 28.6C19.088 26.968 18.464 25.768 18.008 25C17.552 24.208 17.096 23.644 16.64 23.308C16.208 22.972 15.668 22.768 15.02 22.696C14.924 23.2 14.648 24.784 14.192 27.448C14 28.648 13.88 29.38 13.832 29.644C13.592 31.108 13.112 32.236 12.392 33.028C11.672 33.796 10.58 34.18 9.116 34.18C7.508 34.18 6.08 33.712 4.832 32.776C3.608 31.816 2.66 30.496 1.988 28.816C1.316 27.112 0.98 25.18 0.98 23.02C0.98 18.988 1.676 15.508 3.068 12.58C4.484 9.652 6.452 7.42 8.972 5.884C11.516 4.324 14.444 3.544 17.756 3.544C20.06 3.544 21.992 3.892 23.552 4.588C25.112 5.284 26.264 6.244 27.008 7.468C27.776 8.692 28.16 10.072 28.16 11.608C28.16 12.952 27.836 14.272 27.188 15.568C26.564 16.84 25.616 17.968 24.344 18.952C23.072 19.936 21.524 20.668 19.7 21.148C20.852 21.46 21.74 21.964 22.364 22.66C22.988 23.356 23.612 24.376 24.236 25.72C24.908 27.16 25.568 28.216 26.216 28.888C26.888 29.56 27.656 29.896 28.52 29.896C29.288 29.896 30.02 29.644 30.716 29.14C31.412 28.612 32.288 27.724 33.344 26.476C33.632 26.14 33.956 25.972 34.316 25.972ZM10.052 22.66C9.236 22.66 8.672 22.468 8.36 22.084C8.072 21.7 7.928 21.268 7.928 20.788C7.928 20.212 8.108 19.756 8.468 19.42C8.852 19.084 9.284 18.916 9.764 18.916H10.664C11.048 16.564 11.408 14.536 11.744 12.832C12.056 11.272 13.064 10.492 14.768 10.492C16.136 10.492 16.82 11.104 16.82 12.328C16.82 12.592 16.808 12.796 16.784 12.94L15.704 18.916C17 18.844 18.176 18.532 19.232 17.98C20.312 17.428 21.164 16.66 21.788 15.676C22.436 14.692 22.76 13.576 22.76 12.328C22.76 10.816 22.244 9.628 21.212 8.764C20.18 7.9 18.668 7.468 16.676 7.468C14.324 7.468 12.26 8.056 10.484 9.232C8.732 10.384 7.364 12.112 6.38 14.416C5.396 16.696 4.904 19.48 4.904 22.768C4.904 24.304 5.06 25.624 5.372 26.728C5.684 27.832 6.068 28.66 6.524 29.212C6.98 29.764 7.412 30.04 7.82 30.04C8.132 30.04 8.384 29.884 8.576 29.572C8.792 29.26 8.96 28.756 9.08 28.06L10.052 22.66ZM47.7567 25.972C48.0687 25.972 48.3087 26.116 48.4767 26.404C48.6687 26.692 48.7647 27.088 48.7647 27.592C48.7647 28.552 48.5367 29.296 48.0807 29.824C47.1927 30.904 45.9327 31.9 44.3007 32.812C42.6927 33.724 40.9647 34.18 39.1167 34.18C36.5967 34.18 34.6407 33.496 33.2487 32.128C31.8567 30.76 31.1607 28.888 31.1607 26.512C31.1607 24.856 31.5087 23.32 32.2047 21.904C32.9007 20.464 33.8607 19.324 35.0847 18.484C36.3327 17.644 37.7367 17.224 39.2967 17.224C40.6887 17.224 41.8047 17.644 42.6447 18.484C43.4847 19.3 43.9047 20.416 43.9047 21.832C43.9047 23.488 43.3047 24.916 42.1047 26.116C40.9287 27.292 38.9247 28.228 36.0927 28.924C36.6927 30.028 37.8327 30.58 39.5127 30.58C40.5927 30.58 41.8167 30.208 43.1847 29.464C44.5767 28.696 45.7767 27.7 46.7847 26.476C47.0727 26.14 47.3967 25.972 47.7567 25.972ZM38.6847 20.752C37.7967 20.752 37.0407 21.268 36.4167 22.3C35.8167 23.332 35.5167 24.58 35.5167 26.044V26.116C36.9327 25.78 38.0487 25.276 38.8647 24.604C39.6807 23.932 40.0887 23.152 40.0887 22.264C40.0887 21.808 39.9567 21.448 39.6927 21.184C39.4527 20.896 39.1167 20.752 38.6847 20.752ZM48.3895 34.18C47.4775 34.18 46.8295 33.7 46.4455 32.74C46.0855 31.78 45.9055 30.244 45.9055 28.132C45.9055 25.012 46.3495 22.048 47.2375 19.24C47.4535 18.544 47.8015 18.04 48.2815 17.728C48.7855 17.392 49.4815 17.224 50.3695 17.224C50.8495 17.224 51.1855 17.284 51.3775 17.404C51.5695 17.524 51.6655 17.752 51.6655 18.088C51.6655 18.472 51.4855 19.336 51.1255 20.68C50.8855 21.64 50.6935 22.48 50.5495 23.2C50.4055 23.92 50.2855 24.808 50.1895 25.864C50.9815 23.8 51.8695 22.12 52.8535 20.824C53.8375 19.528 54.7975 18.604 55.7335 18.052C56.6935 17.5 57.5695 17.224 58.3615 17.224C59.9215 17.224 60.7015 18.004 60.7015 19.564C60.7015 20.5 60.4375 22.192 59.9095 24.64C59.4535 26.728 59.2255 28.108 59.2255 28.78C59.2255 29.74 59.5735 30.22 60.2695 30.22C60.7495 30.22 61.3135 29.932 61.9615 29.356C62.6335 28.756 63.5215 27.796 64.6255 26.476C64.9135 26.14 65.2375 25.972 65.5975 25.972C65.9095 25.972 66.1495 26.116 66.3175 26.404C66.5095 26.692 66.6055 27.088 66.6055 27.592C66.6055 28.552 66.3775 29.296 65.9215 29.824C64.8895 31.096 63.7735 32.14 62.5735 32.956C61.3975 33.772 60.0535 34.18 58.5415 34.18C57.3175 34.18 56.3935 33.832 55.7695 33.136C55.1455 32.416 54.8335 31.384 54.8335 30.04C54.8335 29.368 55.0015 28.168 55.3375 26.44C55.6495 24.928 55.8055 23.884 55.8055 23.308C55.8055 22.924 55.6735 22.732 55.4095 22.732C55.0975 22.732 54.6535 23.14 54.0775 23.956C53.5255 24.748 52.9495 25.804 52.3495 27.124C51.7735 28.444 51.3055 29.836 50.9455 31.3C50.6815 32.428 50.3695 33.196 50.0095 33.604C49.6735 33.988 49.1335 34.18 48.3895 34.18ZM79.7488 25.972C80.0608 25.972 80.3008 26.116 80.4688 26.404C80.6608 26.692 80.7568 27.088 80.7568 27.592C80.7568 28.552 80.5288 29.296 80.0728 29.824C79.0408 31.096 77.9128 32.14 76.6888 32.956C75.4648 33.772 74.0608 34.18 72.4768 34.18C67.5808 34.18 65.1328 30.736 65.1328 23.848C65.1328 22.792 65.1688 21.724 65.2408 20.644H63.8368C63.1168 20.644 62.6248 20.512 62.3608 20.248C62.1208 19.984 62.0008 19.564 62.0008 18.988C62.0008 17.644 62.5408 16.972 63.6208 16.972H65.6728C66.0808 14.332 66.7048 11.92 67.5448 9.736C68.3848 7.552 69.3928 5.812 70.5688 4.516C71.7688 3.22 73.0528 2.572 74.4208 2.572C75.4288 2.572 76.2208 3.016 76.7968 3.904C77.3728 4.792 77.6608 5.908 77.6608 7.252C77.6608 10.972 76.1008 14.212 72.9808 16.972H77.0128C77.3968 16.972 77.6728 17.056 77.8408 17.224C78.0088 17.392 78.0928 17.704 78.0928 18.16C78.0928 19.816 76.7368 20.644 74.0248 20.644H69.6328C69.5848 21.844 69.5608 22.78 69.5608 23.452C69.5608 25.948 69.8488 27.7 70.4248 28.708C71.0248 29.716 71.9608 30.22 73.2328 30.22C74.2648 30.22 75.1768 29.908 75.9688 29.284C76.7608 28.66 77.6968 27.724 78.7768 26.476C79.0648 26.14 79.3888 25.972 79.7488 25.972ZM73.4488 6.028C73.0888 6.028 72.6808 6.484 72.2248 7.396C71.7928 8.284 71.3728 9.532 70.9648 11.14C70.5808 12.724 70.2568 14.488 69.9928 16.432C71.4088 15.208 72.4648 13.84 73.1608 12.328C73.8808 10.792 74.2408 9.4 74.2408 8.152C74.2408 6.736 73.9768 6.028 73.4488 6.028ZM92.4057 34.18C89.5497 34.18 87.0657 33.664 84.9537 32.632C82.8417 31.576 81.2217 30.088 80.0937 28.168C78.9657 26.248 78.4017 24.016 78.4017 21.472C78.4017 17.944 79.0617 14.812 80.3817 12.076C81.7257 9.34 83.5377 7.228 85.8177 5.74C88.0977 4.228 90.6297 3.472 93.4137 3.472C96.0057 3.472 97.9737 4.144 99.3177 5.488C100.662 6.808 101.334 8.56 101.334 10.744C101.334 12.208 101.07 13.384 100.542 14.272C100.038 15.16 99.3057 15.604 98.3457 15.604C97.6737 15.604 97.1457 15.448 96.7617 15.136C96.3777 14.824 96.1857 14.368 96.1857 13.768C96.1857 13.552 96.2337 13.156 96.3297 12.58C96.4737 11.86 96.5457 11.284 96.5457 10.852C96.5457 8.668 95.3817 7.576 93.0537 7.576C91.4697 7.576 89.9577 8.092 88.5177 9.124C87.0777 10.156 85.9137 11.68 85.0257 13.696C84.1377 15.688 83.6937 18.064 83.6937 20.824C83.6937 23.704 84.4977 25.936 86.1057 27.52C87.7137 29.08 90.0897 29.86 93.2337 29.86C94.7937 29.86 96.3657 29.668 97.9497 29.284C99.5577 28.876 101.334 28.264 103.278 27.448C103.638 27.304 103.938 27.232 104.178 27.232C104.562 27.232 104.85 27.376 105.042 27.664C105.234 27.952 105.33 28.324 105.33 28.78C105.33 30.244 104.538 31.324 102.954 32.02C101.25 32.764 99.4737 33.316 97.6257 33.676C95.8017 34.012 94.0617 34.18 92.4057 34.18ZM106.933 34.18C105.445 34.18 104.257 33.64 103.369 32.56C102.481 31.48 102.037 30.064 102.037 28.312C102.037 26.392 102.481 24.58 103.369 22.876C104.257 21.148 105.433 19.768 106.897 18.736C108.385 17.68 109.957 17.152 111.613 17.152C112.141 17.152 112.489 17.26 112.657 17.476C112.849 17.668 113.005 18.028 113.125 18.556C113.629 18.46 114.157 18.412 114.709 18.412C115.885 18.412 116.473 18.832 116.473 19.672C116.473 20.176 116.293 21.376 115.933 23.272C115.381 26.032 115.105 27.952 115.105 29.032C115.105 29.392 115.189 29.68 115.357 29.896C115.549 30.112 115.789 30.22 116.077 30.22C116.533 30.22 117.085 29.932 117.733 29.356C118.381 28.756 119.257 27.796 120.361 26.476C120.649 26.14 120.973 25.972 121.333 25.972C121.645 25.972 121.885 26.116 122.053 26.404C122.245 26.692 122.341 27.088 122.341 27.592C122.341 28.552 122.113 29.296 121.657 29.824C120.673 31.048 119.629 32.08 118.525 32.92C117.421 33.76 116.353 34.18 115.321 34.18C114.529 34.18 113.797 33.916 113.125 33.388C112.477 32.836 111.985 32.092 111.649 31.156C110.401 33.172 108.829 34.18 106.933 34.18ZM108.229 30.544C108.757 30.544 109.261 30.232 109.741 29.608C110.221 28.984 110.569 28.156 110.785 27.124L112.117 20.5C111.109 20.524 110.173 20.908 109.309 21.652C108.469 22.372 107.797 23.332 107.293 24.532C106.789 25.732 106.537 27.004 106.537 28.348C106.537 29.092 106.681 29.644 106.969 30.004C107.281 30.364 107.701 30.544 108.229 30.544ZM133.428 23.92C134.1 23.92 134.436 24.424 134.436 25.432C134.436 27.328 132.948 28.276 129.972 28.276C129.396 28.276 128.568 28.168 127.488 27.952C127.8 29.44 128.052 31.096 128.244 32.92C128.46 34.72 128.568 36.208 128.568 37.384C128.568 39.976 128.148 41.956 127.308 43.324C126.468 44.692 125.364 45.376 123.996 45.376C122.268 45.376 121.032 44.152 120.288 41.704C119.568 39.256 119.208 35.56 119.208 30.616C119.208 26.008 119.7 21.34 120.684 16.612C121.692 11.86 123.06 7.936 124.788 4.84C126.54 1.72 128.46 0.159998 130.548 0.159998C131.676 0.159998 132.552 0.663998 133.176 1.672C133.824 2.68 134.148 4.036 134.148 5.74C134.148 11.38 130.776 17.524 124.032 24.172C123.792 26.524 123.672 28.588 123.672 30.364C123.672 32.836 123.756 35.368 123.924 37.96C124.092 40.576 124.368 41.884 124.752 41.884C125.472 41.884 125.832 40.636 125.832 38.14C125.832 36.268 125.7 34.456 125.436 32.704C125.196 30.952 124.86 29.104 124.428 27.16C124.404 26.848 124.5 26.452 124.716 25.972C124.956 25.492 125.244 25.072 125.58 24.712C125.916 24.352 126.216 24.172 126.48 24.172C126.96 24.172 127.536 24.196 128.208 24.244C128.424 24.268 128.676 24.28 128.964 24.28C129.924 24.28 130.992 24.196 132.168 24.028C132.36 24.004 132.564 23.98 132.78 23.956C132.996 23.932 133.212 23.92 133.428 23.92ZM129.792 3.724C129.36 3.724 128.82 4.456 128.172 5.92C127.548 7.384 126.924 9.328 126.3 11.752C125.676 14.152 125.136 16.696 124.68 19.384C126.6 17.2 128.076 14.932 129.108 12.58C130.14 10.204 130.668 7.984 130.692 5.92C130.692 4.456 130.392 3.724 129.792 3.724ZM144.608 27.052C144.92 27.052 145.16 27.196 145.328 27.484C145.52 27.772 145.616 28.168 145.616 28.672C145.616 29.536 145.412 30.28 145.004 30.904C144.332 31.936 143.444 32.74 142.34 33.316C141.26 33.892 139.964 34.18 138.452 34.18C136.148 34.18 134.36 33.496 133.088 32.128C131.816 30.736 131.18 28.864 131.18 26.512C131.18 24.856 131.528 23.32 132.224 21.904C132.92 20.464 133.88 19.324 135.104 18.484C136.352 17.644 137.756 17.224 139.316 17.224C140.708 17.224 141.824 17.644 142.664 18.484C143.504 19.3 143.924 20.416 143.924 21.832C143.924 23.488 143.324 24.916 142.124 26.116C140.948 27.292 138.932 28.228 136.076 28.924C136.652 30.028 137.624 30.58 138.992 30.58C139.976 30.58 140.78 30.352 141.404 29.896C142.052 29.44 142.796 28.672 143.636 27.592C143.924 27.232 144.248 27.052 144.608 27.052ZM138.704 20.752C137.816 20.752 137.06 21.268 136.436 22.3C135.836 23.332 135.536 24.58 135.536 26.044V26.116C136.952 25.78 138.068 25.276 138.884 24.604C139.7 23.932 140.108 23.152 140.108 22.264C140.108 21.808 139.976 21.448 139.712 21.184C139.472 20.896 139.136 20.752 138.704 20.752Z" fill="url(#paint0_linear)"/>
<defs>
<linearGradient id="paint0_linear" x1="72" y1="-13" x2="72" y2="50" gradientUnits="userSpaceOnUse">
<stop offset="0.205357" stop-color="#5068A9"/>
<stop offset="1" stop-color="#F73C4F"/>
</linearGradient>
</defs>
</svg>
