<svg width="258" height="82" viewBox="0 0 258 82" fill="none" xmlns="http://www.w3.org/2000/svg">
<path d="M59.784 46.728C60.3387 46.728 60.7653 46.984 61.064 47.496C61.4053 48.008 61.576 48.712 61.576 49.608C61.576 51.272 61.1707 52.5947 60.36 53.576C58.312 56.0507 56.2427 57.9707 54.152 59.336C52.0613 60.6587 49.5867 61.32 46.728 61.32C43.9547 61.32 41.5867 60.5733 39.624 59.08C37.704 57.5867 35.8693 55.0267 34.12 51.4C32.712 48.4987 31.6027 46.3653 30.792 45C29.9813 43.592 29.1707 42.5893 28.36 41.992C27.592 41.3947 26.632 41.032 25.48 40.904C25.3093 41.8 24.8187 44.616 24.008 49.352C23.6667 51.4853 23.4533 52.7867 23.368 53.256C22.9413 55.8587 22.088 57.864 20.808 59.272C19.528 60.6373 17.5867 61.32 14.984 61.32C12.1253 61.32 9.58667 60.488 7.368 58.824C5.192 57.1173 3.50667 54.7707 2.312 51.784C1.11733 48.7547 0.52 45.32 0.52 41.48C0.52 34.312 1.75733 28.1253 4.232 22.92C6.74933 17.7147 10.248 13.7467 14.728 11.016C19.2507 8.24267 24.456 6.856 30.344 6.856C34.44 6.856 37.8747 7.47467 40.648 8.712C43.4213 9.94933 45.4693 11.656 46.792 13.832C48.1573 16.008 48.84 18.4613 48.84 21.192C48.84 23.5813 48.264 25.928 47.112 28.232C46.0027 30.4933 44.3173 32.4987 42.056 34.248C39.7947 35.9973 37.0427 37.2987 33.8 38.152C35.848 38.7067 37.4267 39.6027 38.536 40.84C39.6453 42.0773 40.7547 43.8907 41.864 46.28C43.0587 48.84 44.232 50.7173 45.384 51.912C46.5787 53.1067 47.944 53.704 49.48 53.704C50.8453 53.704 52.1467 53.256 53.384 52.36C54.6213 51.4213 56.1787 49.8427 58.056 47.624C58.568 47.0267 59.144 46.728 59.784 46.728ZM16.648 40.84C15.1973 40.84 14.1947 40.4987 13.64 39.816C13.128 39.1333 12.872 38.3653 12.872 37.512C12.872 36.488 13.192 35.6773 13.832 35.08C14.5147 34.4827 15.2827 34.184 16.136 34.184H17.736C18.4187 30.0027 19.0587 26.3973 19.656 23.368C20.2107 20.5947 22.0027 19.208 25.032 19.208C27.464 19.208 28.68 20.296 28.68 22.472C28.68 22.9413 28.6587 23.304 28.616 23.56L26.696 34.184C29 34.056 31.0907 33.5013 32.968 32.52C34.888 31.5387 36.4027 30.1733 37.512 28.424C38.664 26.6747 39.24 24.6907 39.24 22.472C39.24 19.784 38.3227 17.672 36.488 16.136C34.6533 14.6 31.9653 13.832 28.424 13.832C24.2427 13.832 20.5733 14.8773 17.416 16.968C14.3013 19.016 11.8693 22.088 10.12 26.184C8.37067 30.2373 7.496 35.1867 7.496 41.032C7.496 43.7627 7.77333 46.1093 8.328 48.072C8.88267 50.0347 9.56533 51.5067 10.376 52.488C11.1867 53.4693 11.9547 53.96 12.68 53.96C13.2347 53.96 13.6827 53.6827 14.024 53.128C14.408 52.5733 14.7067 51.6773 14.92 50.44L16.648 40.84ZM83.6785 46.728C84.2332 46.728 84.6598 46.984 84.9585 47.496C85.2998 48.008 85.4705 48.712 85.4705 49.608C85.4705 51.3147 85.0652 52.6373 84.2545 53.576C82.6758 55.496 80.4358 57.2667 77.5345 58.888C74.6758 60.5093 71.6038 61.32 68.3185 61.32C63.8385 61.32 60.3612 60.104 57.8865 57.672C55.4118 55.24 54.1745 51.912 54.1745 47.688C54.1745 44.744 54.7932 42.0133 56.0305 39.496C57.2678 36.936 58.9745 34.9093 61.1505 33.416C63.3692 31.9227 65.8652 31.176 68.6385 31.176C71.1132 31.176 73.0972 31.9227 74.5905 33.416C76.0838 34.8667 76.8305 36.8507 76.8305 39.368C76.8305 42.312 75.7638 44.8507 73.6305 46.984C71.5398 49.0747 67.9772 50.7387 62.9425 51.976C64.0092 53.9387 66.0358 54.92 69.0225 54.92C70.9425 54.92 73.1185 54.2587 75.5505 52.936C78.0252 51.5707 80.1585 49.8 81.9505 47.624C82.4625 47.0267 83.0385 46.728 83.6785 46.728ZM67.5505 37.448C65.9718 37.448 64.6278 38.3653 63.5185 40.2C62.4518 42.0347 61.9185 44.2533 61.9185 46.856V46.984C64.4358 46.3867 66.4198 45.4907 67.8705 44.296C69.3212 43.1013 70.0465 41.7147 70.0465 40.136C70.0465 39.3253 69.8118 38.6853 69.3425 38.216C68.9158 37.704 68.3185 37.448 67.5505 37.448ZM84.8035 61.32C83.1822 61.32 82.0302 60.4667 81.3475 58.76C80.7075 57.0533 80.3875 54.3227 80.3875 50.568C80.3875 45.0213 81.1768 39.752 82.7555 34.76C83.1395 33.5227 83.7582 32.6267 84.6115 32.072C85.5075 31.4747 86.7448 31.176 88.3235 31.176C89.1768 31.176 89.7742 31.2827 90.1155 31.496C90.4568 31.7093 90.6275 32.1147 90.6275 32.712C90.6275 33.3947 90.3075 34.9307 89.6675 37.32C89.2408 39.0267 88.8995 40.52 88.6435 41.8C88.3875 43.08 88.1742 44.6587 88.0035 46.536C89.4115 42.8667 90.9902 39.88 92.7395 37.576C94.4888 35.272 96.1955 33.6293 97.8595 32.648C99.5662 31.6667 101.124 31.176 102.532 31.176C105.305 31.176 106.692 32.5627 106.692 35.336C106.692 37 106.222 40.008 105.284 44.36C104.473 48.072 104.068 50.5253 104.068 51.72C104.068 53.4267 104.686 54.28 105.924 54.28C106.777 54.28 107.78 53.768 108.932 52.744C110.126 51.6773 111.705 49.9707 113.668 47.624C114.18 47.0267 114.756 46.728 115.396 46.728C115.95 46.728 116.377 46.984 116.676 47.496C117.017 48.008 117.188 48.712 117.188 49.608C117.188 51.3147 116.782 52.6373 115.972 53.576C114.137 55.8373 112.153 57.6933 110.02 59.144C107.929 60.5947 105.54 61.32 102.852 61.32C100.676 61.32 99.0328 60.7013 97.9235 59.464C96.8142 58.184 96.2595 56.3493 96.2595 53.96C96.2595 52.7653 96.5582 50.632 97.1555 47.56C97.7102 44.872 97.9875 43.016 97.9875 41.992C97.9875 41.3093 97.7528 40.968 97.2835 40.968C96.7288 40.968 95.9395 41.6933 94.9155 43.144C93.9342 44.552 92.9102 46.4293 91.8435 48.776C90.8195 51.1227 89.9875 53.5973 89.3475 56.2C88.8782 58.2053 88.3235 59.5707 87.6835 60.296C87.0862 60.9787 86.1262 61.32 84.8035 61.32ZM140.554 46.728C141.108 46.728 141.535 46.984 141.833 47.496C142.175 48.008 142.346 48.712 142.346 49.608C142.346 51.3147 141.94 52.6373 141.13 53.576C139.295 55.8373 137.29 57.6933 135.114 59.144C132.938 60.5947 130.442 61.32 127.626 61.32C118.922 61.32 114.57 55.1973 114.57 42.952C114.57 41.0747 114.634 39.176 114.762 37.256H112.266C110.986 37.256 110.111 37.0213 109.642 36.552C109.215 36.0827 109.002 35.336 109.002 34.312C109.002 31.9227 109.962 30.728 111.882 30.728H115.53C116.255 26.0347 117.364 21.7467 118.858 17.864C120.351 13.9813 122.143 10.888 124.234 8.584C126.367 6.28 128.65 5.128 131.082 5.128C132.874 5.128 134.282 5.91733 135.306 7.496C136.33 9.07467 136.842 11.0587 136.842 13.448C136.842 20.0613 134.068 25.8213 128.522 30.728H135.69C136.372 30.728 136.863 30.8773 137.162 31.176C137.46 31.4747 137.61 32.0293 137.61 32.84C137.61 35.784 135.199 37.256 130.378 37.256H122.57C122.484 39.3893 122.442 41.0533 122.442 42.248C122.442 46.6853 122.954 49.8 123.978 51.592C125.044 53.384 126.708 54.28 128.97 54.28C130.804 54.28 132.426 53.7253 133.834 52.616C135.242 51.5067 136.906 49.8427 138.826 47.624C139.338 47.0267 139.914 46.728 140.554 46.728ZM129.354 11.272C128.714 11.272 127.988 12.0827 127.178 13.704C126.41 15.2827 125.663 17.5013 124.938 20.36C124.255 23.176 123.679 26.312 123.21 29.768C125.727 27.592 127.604 25.16 128.842 22.472C130.122 19.7413 130.762 17.2667 130.762 15.048C130.762 12.5307 130.292 11.272 129.354 11.272ZM163.055 61.32C157.977 61.32 153.561 60.4027 149.807 58.568C146.052 56.6907 143.172 54.0453 141.167 50.632C139.161 47.2187 138.159 43.2507 138.159 38.728C138.159 32.456 139.332 26.888 141.679 22.024C144.068 17.16 147.289 13.4053 151.343 10.76C155.396 8.072 159.897 6.728 164.847 6.728C169.455 6.728 172.953 7.92266 175.343 10.312C177.732 12.6587 178.927 15.7733 178.927 19.656C178.927 22.2587 178.457 24.3493 177.519 25.928C176.623 27.5067 175.321 28.296 173.615 28.296C172.42 28.296 171.481 28.0187 170.799 27.464C170.116 26.9093 169.775 26.0987 169.775 25.032C169.775 24.648 169.86 23.944 170.031 22.92C170.287 21.64 170.415 20.616 170.415 19.848C170.415 15.9653 168.345 14.024 164.207 14.024C161.391 14.024 158.703 14.9413 156.143 16.776C153.583 18.6107 151.513 21.32 149.935 24.904C148.356 28.4453 147.567 32.6693 147.567 37.576C147.567 42.696 148.996 46.664 151.855 49.48C154.713 52.2533 158.937 53.64 164.527 53.64C167.3 53.64 170.095 53.2987 172.911 52.616C175.769 51.8907 178.927 50.8027 182.383 49.352C183.023 49.096 183.556 48.968 183.983 48.968C184.665 48.968 185.177 49.224 185.519 49.736C185.86 50.248 186.031 50.9093 186.031 51.72C186.031 54.3227 184.623 56.2427 181.807 57.48C178.777 58.8027 175.62 59.784 172.335 60.424C169.092 61.0213 165.999 61.32 163.055 61.32ZM188.882 61.32C186.236 61.32 184.124 60.36 182.546 58.44C180.967 56.52 180.178 54.0027 180.178 50.888C180.178 47.4747 180.967 44.2533 182.546 41.224C184.124 38.152 186.215 35.6987 188.818 33.864C191.463 31.9867 194.258 31.048 197.202 31.048C198.14 31.048 198.759 31.24 199.058 31.624C199.399 31.9653 199.676 32.6053 199.89 33.544C200.786 33.3733 201.724 33.288 202.706 33.288C204.796 33.288 205.842 34.0347 205.842 35.528C205.842 36.424 205.522 38.5573 204.882 41.928C203.9 46.8347 203.41 50.248 203.41 52.168C203.41 52.808 203.559 53.32 203.858 53.704C204.199 54.088 204.626 54.28 205.138 54.28C205.948 54.28 206.93 53.768 208.082 52.744C209.234 51.6773 210.791 49.9707 212.754 47.624C213.266 47.0267 213.842 46.728 214.482 46.728C215.036 46.728 215.463 46.984 215.762 47.496C216.103 48.008 216.274 48.712 216.274 49.608C216.274 51.3147 215.868 52.6373 215.058 53.576C213.308 55.752 211.452 57.5867 209.49 59.08C207.527 60.5733 205.628 61.32 203.794 61.32C202.386 61.32 201.084 60.8507 199.89 59.912C198.738 58.9307 197.863 57.608 197.266 55.944C195.047 59.528 192.252 61.32 188.882 61.32ZM191.186 54.856C192.124 54.856 193.02 54.3013 193.874 53.192C194.727 52.0827 195.346 50.6107 195.73 48.776L198.098 37C196.306 37.0427 194.642 37.7253 193.106 39.048C191.612 40.328 190.418 42.0347 189.522 44.168C188.626 46.3013 188.178 48.5627 188.178 50.952C188.178 52.2747 188.434 53.256 188.946 53.896C189.5 54.536 190.247 54.856 191.186 54.856ZM235.983 43.08C237.178 43.08 237.775 43.976 237.775 45.768C237.775 49.1387 235.13 50.824 229.839 50.824C228.815 50.824 227.343 50.632 225.423 50.248C225.978 52.8933 226.426 55.8373 226.767 59.08C227.151 62.28 227.343 64.9253 227.343 67.016C227.343 71.624 226.596 75.144 225.103 77.576C223.61 80.008 221.647 81.224 219.215 81.224C216.143 81.224 213.946 79.048 212.623 74.696C211.343 70.344 210.703 63.7733 210.703 54.984C210.703 46.792 211.578 38.4933 213.327 30.088C215.119 21.64 217.551 14.664 220.623 9.16C223.738 3.61333 227.151 0.839996 230.863 0.839996C232.868 0.839996 234.426 1.736 235.535 3.528C236.687 5.32 237.263 7.73066 237.263 10.76C237.263 20.7867 231.268 31.7093 219.279 43.528C218.852 47.7093 218.639 51.3787 218.639 54.536C218.639 58.9307 218.788 63.432 219.087 68.04C219.386 72.6907 219.876 75.016 220.559 75.016C221.839 75.016 222.479 72.7973 222.479 68.36C222.479 65.032 222.244 61.8107 221.775 58.696C221.348 55.5813 220.751 52.296 219.983 48.84C219.94 48.2853 220.111 47.5813 220.495 46.728C220.922 45.8747 221.434 45.128 222.031 44.488C222.628 43.848 223.162 43.528 223.631 43.528C224.484 43.528 225.508 43.5707 226.703 43.656C227.087 43.6987 227.535 43.72 228.047 43.72C229.754 43.72 231.652 43.5707 233.743 43.272C234.084 43.2293 234.447 43.1867 234.831 43.144C235.215 43.1013 235.599 43.08 235.983 43.08ZM229.519 7.176C228.751 7.176 227.791 8.47733 226.639 11.08C225.53 13.6827 224.42 17.1387 223.311 21.448C222.202 25.7147 221.242 30.2373 220.431 35.016C223.844 31.1333 226.468 27.1013 228.303 22.92C230.138 18.696 231.076 14.7493 231.119 11.08C231.119 8.47733 230.586 7.176 229.519 7.176ZM255.859 48.648C256.414 48.648 256.84 48.904 257.139 49.416C257.48 49.928 257.651 50.632 257.651 51.528C257.651 53.064 257.288 54.3867 256.563 55.496C255.368 57.3307 253.79 58.76 251.827 59.784C249.907 60.808 247.603 61.32 244.915 61.32C240.819 61.32 237.64 60.104 235.379 57.672C233.118 55.1973 231.987 51.8693 231.987 47.688C231.987 44.744 232.606 42.0133 233.843 39.496C235.08 36.936 236.787 34.9093 238.963 33.416C241.182 31.9227 243.678 31.176 246.451 31.176C248.926 31.176 250.91 31.9227 252.403 33.416C253.896 34.8667 254.643 36.8507 254.643 39.368C254.643 42.312 253.576 44.8507 251.443 46.984C249.352 49.0747 245.768 50.7387 240.691 51.976C241.715 53.9387 243.443 54.92 245.875 54.92C247.624 54.92 249.054 54.5147 250.163 53.704C251.315 52.8933 252.638 51.528 254.131 49.608C254.643 48.968 255.219 48.648 255.859 48.648ZM245.363 37.448C243.784 37.448 242.44 38.3653 241.331 40.2C240.264 42.0347 239.731 44.2533 239.731 46.856V46.984C242.248 46.3867 244.232 45.4907 245.683 44.296C247.134 43.1013 247.859 41.7147 247.859 40.136C247.859 39.3253 247.624 38.6853 247.155 38.216C246.728 37.704 246.131 37.448 245.363 37.448Z" fill="url(#paint0_linear)"/>
<defs>
<linearGradient id="paint0_linear" x1="127" y1="-22" x2="127" y2="90" gradientUnits="userSpaceOnUse">
<stop offset="0.205357" stop-color="#5068A9"/>
<stop offset="1" stop-color="#F73C4F"/>
</linearGradient>
</defs>
</svg>
